<?xml version="1.0" encoding="UTF-8"?>
<svg id="Layer_2" xmlns="http://www.w3.org/2000/svg" viewBox="0 0 214.7 220.26">
  <defs>
    <style>
      .cls-1 {
        fill: #f36;
      }
    </style>
  </defs>
  <g id="Layer_1-2" data-name="Layer_1">
    <g id="vlpa">
      <g id="vlpb">
        <path class="cls-1" d="M42.45,18.87v196.05c0,2.09-.95,3.05-2.66,3.05H2.47c-1.71,0-2.47-.95-2.47-3.05V18.87c0-1.71.95-2.47,2.66-2.47h37.12c1.14-.19,2.28.57,2.47,1.9.19.19.19.38.19.57Z"/>
        <path class="cls-1" d="M152.46,220.25c-14.09.19-28.17-2.66-40.92-8.57-11.99-5.52-21.89-14.66-28.74-25.89-7.04-11.61-10.47-26.08-10.47-43.4-.19-14.09,3.43-27.98,10.47-40.16,7.23-12.37,17.7-22.65,30.26-29.5,13.32-7.42,29.31-11.04,48.16-11.04.95,0,2.28,0,4,.19s3.62.19,5.9.38V2.12c0-1.33.57-2.09,1.9-2.09h38.64c.95-.19,1.71.57,1.9,1.33v181.58c0,3.43.19,7.23.38,11.42.38,4,.57,7.8.76,11.04,0,1.33-.57,2.47-1.9,3.05-9.9,4.19-20.37,7.23-31.03,9.14-9.52,1.71-19.41,2.66-29.31,2.66h0ZM171.12,182.19v-83.75c-1.71-.38-3.43-.76-5.14-.95-2.09-.19-4.19-.38-6.28-.38-7.42,0-14.85,1.52-21.51,4.95-6.47,3.24-11.99,7.99-16.18,14.09-4.19,6.09-6.28,14.28-6.28,24.17-.19,6.66.95,13.32,3.24,19.61,1.9,5.14,4.76,9.71,8.57,13.51,3.62,3.43,7.99,6.09,12.94,7.61,5.14,1.71,10.47,2.47,15.8,2.47,2.86,0,5.52-.19,7.99-.38,2.47.19,4.76-.19,6.85-.95h0Z"/>
      </g>
    </g>
  </g>
</svg>