<?xml version="1.0" encoding="UTF-8"?>
<svg xmlns="http://www.w3.org/2000/svg" version="1.1" viewBox="0 0 231.6 231.6">
  <!-- Generator: Adobe Illustrator 28.6.0, SVG Export Plug-In . SVG Version: 1.2.0 Build 709)  -->
  <g>
    <g id="Layer_1">
      <g id="vlpa">
        <g id="vlpb">
          <path d="M47.6,19.8v206.1c0,2.2-1,3.2-2.8,3.2H5.5c-1.8,0-2.6-1-2.6-3.2V19.8c0-1.8,1-2.6,2.8-2.6h39c1.2-.2,2.4.6,2.6,2,.2.2.2.4.2.6Z"/>
          <path d="M163.2,231.6c-14.8.2-29.6-2.8-43-9-12.6-5.8-23-15.4-30.2-27.2-7.4-12.2-11-27.4-11-45.6-.2-14.8,3.6-29.4,11-42.2,7.6-13,18.6-23.8,31.8-31,14-7.8,30.8-11.6,50.6-11.6s2.4,0,4.2.2,3.8.2,6.2.4V2.2c0-1.4.6-2.2,2-2.2h40.6c1-.2,1.8.6,2,1.4v190.9c0,3.6.2,7.6.4,12,.4,4.2.6,8.2.8,11.6,0,1.4-.6,2.6-2,3.2-10.4,4.4-21.4,7.6-32.6,9.6-10,1.8-20.4,2.8-30.8,2.8h0ZM182.8,191.6v-88.1c-1.8-.4-3.6-.8-5.4-1-2.2-.2-4.4-.4-6.6-.4-7.8,0-15.6,1.6-22.6,5.2-6.8,3.4-12.6,8.4-17,14.8-4.4,6.4-6.6,15-6.6,25.4-.2,7,1,14,3.4,20.6,2,5.4,5,10.2,9,14.2,3.8,3.6,8.4,6.4,13.6,8,5.4,1.8,11,2.6,16.6,2.6s5.8-.2,8.4-.4c2.6.2,5-.2,7.2-1h0Z"/>
        </g>
      </g>
    </g>
  </g>
</svg>