<?xml version="1.0" encoding="UTF-8"?>
<svg xmlns="http://www.w3.org/2000/svg" version="1.1" viewBox="0 0 288 288">
  <!-- Generator: Adobe Illustrator 28.6.0, SVG Export Plug-In . SVG Version: 1.2.0 Build 709)  -->
  <g>
    <g id="Layer_1">
      <g>
        <path d="M59.6,24.7v256.3c0,2.7-1.2,4-3.5,4H7.3c-2.2,0-3.2-1.2-3.2-4V24.7c0-2.2,1.2-3.2,3.5-3.2h48.5c1.5-.2,3,.7,3.2,2.5.2.2.2.5.2.7h0Z"/>
        <path d="M203.4,288.1c-18.4.2-36.8-3.5-53.5-11.2-15.7-7.2-28.6-19.2-37.6-33.8-9.2-15.2-13.7-34.1-13.7-56.7-.2-18.4,4.5-36.6,13.7-52.5,9.5-16.2,23.1-29.6,39.6-38.6,17.4-9.7,38.3-14.4,63-14.4s3,0,5.2.2,4.7.2,7.7.5V2.8c0-1.7.7-2.7,2.5-2.7h50.5c1.2-.2,2.2.7,2.5,1.7v237.4c0,4.5.2,9.5.5,14.9.5,5.2.7,10.2,1,14.4,0,1.7-.7,3.2-2.5,4-12.9,5.5-26.6,9.5-40.6,11.9-12.4,2.2-25.4,3.5-38.3,3.5h0v.2ZM227.8,238.3v-109.5c-2.2-.5-4.5-1-6.7-1.2-2.7-.2-5.5-.5-8.2-.5-9.7,0-19.4,2-28.1,6.5-8.5,4.2-15.7,10.5-21.2,18.4-5.5,8-8.2,18.7-8.2,31.6-.2,8.7,1.2,17.4,4.2,25.6,2.5,6.7,6.2,12.7,11.2,17.7,4.7,4.5,10.5,8,16.9,10,6.7,2.2,13.7,3.2,20.7,3.2s7.2-.2,10.5-.5c3.2.2,6.2-.2,9-1.2h0Z"/>
      </g>
    </g>
  </g>
</svg>