<?xml version="1.0" encoding="UTF-8"?>
<svg id="Layer_2" xmlns="http://www.w3.org/2000/svg" viewBox="0 0 225.75 231.6">
  <g id="Layer_1-2" data-name="Layer_1">
    <g id="vlpa">
      <g id="vlpb">
        <path d="M44.63,19.84v206.14c0,2.2-1,3.2-2.8,3.2H2.6c-1.8,0-2.6-1-2.6-3.2V19.84c0-1.8,1-2.6,2.8-2.6h39.03c1.2-.2,2.4.6,2.6,2,.2.2.2.4.2.6Z"/>
        <path d="M160.31,231.59c-14.81.2-29.62-2.8-43.03-9.01-12.61-5.8-23.02-15.41-30.22-27.22-7.4-12.21-11.01-27.42-11.01-45.63-.2-14.81,3.6-29.42,11.01-42.23,7.61-13.01,18.61-23.82,31.82-31.02,14.01-7.81,30.82-11.61,50.63-11.61,1,0,2.4,0,4.2.2s3.8.2,6.2.4V2.23c0-1.4.6-2.2,2-2.2h40.63c1-.2,1.8.6,2,1.4v190.93c0,3.6.2,7.61.4,12.01.4,4.2.6,8.21.8,11.61,0,1.4-.6,2.6-2,3.2-10.41,4.4-21.41,7.61-32.62,9.61-10.01,1.8-20.41,2.8-30.82,2.8h0ZM179.92,191.56v-88.06c-1.8-.4-3.6-.8-5.4-1-2.2-.2-4.4-.4-6.6-.4-7.81,0-15.61,1.6-22.62,5.2-6.8,3.4-12.61,8.41-17.01,14.81-4.4,6.4-6.6,15.01-6.6,25.42-.2,7,1,14.01,3.4,20.61,2,5.4,5,10.21,9.01,14.21,3.8,3.6,8.41,6.4,13.61,8.01,5.4,1.8,11.01,2.6,16.61,2.6,3,0,5.8-.2,8.41-.4,2.6.2,5-.2,7.2-1h0Z"/>
      </g>
    </g>
  </g>
</svg>