<?xml version="1.0" encoding="UTF-8"?>
<svg xmlns="http://www.w3.org/2000/svg" version="1.1" viewBox="0 0 231.6 231.6">
  <!-- Generator: Adobe Illustrator 28.6.0, SVG Export Plug-In . SVG Version: 1.2.0 Build 709)  -->
  <g>
    <g id="Layer_1">
      <g>
        <path d="M-91.9-176.3V451.2c0,6.7-3,9.7-8.5,9.7h-119.4c-5.5,0-7.9-3-7.9-9.7V-176.3c0-5.5,3-7.9,8.5-7.9h118.8c3.7-.6,7.3,1.8,7.9,6.1.6.6.6,1.2.6,1.8Z"/>
        <path d="M260.2,468.3c-45.1.6-90.2-8.5-131-27.4-38.4-17.7-70.1-46.9-92-82.9C14.7,320.8,3.7,274.5,3.7,219.1c-.6-45.1,11-89.6,33.5-128.6C60.4,50.9,93.9,18,134.1-3.9c42.6-23.8,93.8-35.3,154.1-35.3s7.3,0,12.8.6c5.5.6,11.6.6,18.9,1.2v-192.5c0-4.3,1.8-6.7,6.1-6.7h123.7c3-.6,5.5,1.8,6.1,4.3V348.9c0,11,.6,23.2,1.2,36.6,1.2,12.8,1.8,25,2.4,35.3,0,4.3-1.8,7.9-6.1,9.7-31.7,13.4-65.2,23.2-99.3,29.3-30.5,5.5-62.1,8.5-93.8,8.5h0ZM319.9,346.4V78.4c-5.5-1.2-11-2.4-16.4-3-6.7-.6-13.4-1.2-20.1-1.2-23.8,0-47.5,4.9-68.9,15.8-20.7,10.4-38.4,25.6-51.8,45.1-13.4,19.5-20.1,45.7-20.1,77.4-.6,21.3,3,42.6,10.4,62.7,6.1,16.4,15.2,31.1,27.4,43.3,11.6,11,25.6,19.5,41.4,24.4,16.4,5.5,33.5,7.9,50.6,7.9s17.7-.6,25.6-1.2c7.9.6,15.2-.6,21.9-3h0Z"/>
      </g>
    </g>
  </g>
</svg>